<?xml version="1.0" standalone="no"?>
<!DOCTYPE svg PUBLIC "-//W3C//DTD SVG 20010904//EN"
 "http://www.w3.org/TR/2001/REC-SVG-20010904/DTD/svg10.dtd">
<svg version="1.0" xmlns="http://www.w3.org/2000/svg"
 width="266.000000pt" height="265.000000pt" viewBox="0 0 266.000000 265.000000"
 preserveAspectRatio="xMidYMid meet">

<g transform="translate(0.000000,265.000000) scale(0.100000,-0.100000)"
fill="#000000" stroke="none">
<path d="M685 1970 l-640 -640 643 -643 642 -642 642 642 643 643 -640 640
c-352 352 -642 640 -645 640 -3 0 -293 -288 -645 -640z m1275 -15 l625 -625
-628 -628 -627 -627 -627 627 -628 628 625 625 c344 344 627 625 630 625 3 0
286 -281 630 -625z"/>
<path d="M1294 2286 c-8 -21 -1 -49 14 -54 8 -2 12 7 12 27 0 33 -17 51 -26
27z m13 -33 c-3 -10 -5 -4 -5 12 0 17 2 24 5 18 2 -7 2 -21 0 -30z"/>
<path d="M1240 2262 c0 -21 5 -28 20 -28 11 0 20 1 20 2 0 2 -4 14 -10 28 -13
34 -30 33 -30 -2z"/>
<path d="M1364 2260 c-1 -35 11 -31 18 5 3 15 1 25 -6 25 -6 0 -11 -13 -12
-30z"/>
<path d="M1401 2259 c-9 -26 -8 -30 4 -26 7 3 16 1 19 -6 2 -7 5 5 5 26 1 45
-13 48 -28 6z"/>
<path d="M1188 2254 c4 -24 27 -43 38 -31 11 11 -9 57 -26 57 -13 0 -16 -6
-12 -26z m32 -16 c0 -5 -4 -8 -10 -8 -5 0 -10 10 -10 23 0 18 2 19 10 7 5 -8
10 -18 10 -22z"/>
<path d="M1449 2253 c-7 -18 -6 -30 1 -37 12 -12 25 -1 34 30 10 34 -22 40
-35 7z m21 -13 c0 -11 -4 -20 -9 -20 -5 0 -7 9 -4 20 3 11 7 20 9 20 2 0 4 -9
4 -20z"/>
<path d="M1117 2221 c7 -33 7 -33 27 -25 9 3 13 11 10 16 -4 6 -10 5 -16 -3
-6 -9 -7 -5 -3 12 5 19 2 26 -9 26 -12 0 -14 -7 -9 -26z"/>
<path d="M1521 2224 c-17 -38 -6 -42 14 -5 8 17 12 31 7 31 -5 0 -14 -12 -21
-26z"/>
<path d="M1552 2215 c-7 -15 -11 -30 -8 -32 7 -7 28 36 24 49 -2 6 -9 -2 -16
-17z"/>
<path d="M1045 2210 c-9 -14 13 -50 30 -50 8 0 15 8 14 18 0 11 -2 12 -6 4 -4
-10 -8 -10 -19 -1 -16 13 -19 33 -4 24 6 -3 10 -1 10 4 0 14 -17 14 -25 1z"/>
<path d="M1583 2208 c-25 -32 -26 -40 -4 -26 12 7 21 18 21 25 0 16 -5 16 -17
1z"/>
<path d="M1598 2186 c-19 -14 -26 -42 -8 -31 9 6 34 45 28 45 -2 0 -11 -7 -20
-14z"/>
<path d="M1006 2181 c-3 -5 -4 -16 0 -24 4 -11 -1 -13 -20 -10 -30 6 -32 -3
-10 -35 12 -18 19 -20 29 -12 8 6 11 18 8 26 -4 12 0 13 21 4 26 -9 26 -9 13
22 -14 33 -31 46 -41 29z m34 -33 c0 -6 -7 -5 -15 2 -8 7 -15 17 -15 22 0 6 7
5 15 -2 8 -7 15 -17 15 -22z m-40 -23 c7 -8 8 -15 2 -15 -5 0 -15 7 -22 15 -7
8 -8 15 -2 15 5 0 15 -7 22 -15z"/>
<path d="M1615 2163 c-15 -22 -15 -25 -2 -20 12 4 14 2 10 -10 -9 -22 14 -8
27 17 9 16 8 18 -5 14 -11 -5 -13 -2 -9 10 9 25 -2 19 -21 -11z"/>
<path d="M1673 2117 c-19 -20 -20 -23 -5 -37 14 -13 15 -12 9 3 -4 10 -2 16 6
14 7 -1 11 3 10 10 -2 8 4 10 15 7 10 -4 13 -2 7 3 -5 4 -13 12 -16 16 -3 4
-15 -3 -26 -16z"/>
<path d="M910 2086 c0 -20 27 -39 45 -32 13 4 14 10 5 26 -12 23 -50 27 -50 6z
m40 -11 c7 -8 8 -15 2 -15 -5 0 -15 7 -22 15 -7 8 -8 15 -2 15 5 0 15 -7 22
-15z"/>
<path d="M1700 2085 c-7 -8 -9 -22 -6 -31 6 -15 8 -15 26 1 11 10 20 24 20 32
0 18 -25 17 -40 -2z m20 -20 c-7 -9 -15 -13 -18 -10 -3 2 1 11 8 20 7 9 15 13
18 10 3 -2 -1 -11 -8 -20z"/>
<path d="M883 2058 c2 -7 9 -12 15 -11 6 2 9 -3 6 -11 -8 -20 8 -27 23 -10 10
10 9 16 -9 28 -27 19 -41 20 -35 4z"/>
<path d="M1736 2051 c-17 -19 -17 -19 2 -14 12 3 23 11 26 19 8 20 -8 17 -28
-5z"/>
<path d="M1757 2036 c-9 -7 -17 -19 -17 -27 0 -9 8 -6 22 9 25 24 22 37 -5 18z"/>
<path d="M868 2028 c10 -12 10 -18 1 -23 -8 -6 -7 -10 2 -16 8 -5 9 -9 3 -9
-6 0 -17 6 -23 14 -9 11 -9 15 1 19 8 4 7 6 -4 6 -21 1 -22 -3 -8 -30 13 -24
36 -24 49 0 8 14 6 23 -12 37 -16 14 -18 15 -9 2z"/>
<path d="M1797 1994 c-24 -32 -19 -38 12 -13 14 12 20 23 15 29 -5 5 -17 -2
-27 -16z"/>
<path d="M1820 1965 c-20 -22 -21 -25 -6 -31 10 -4 26 1 39 12 21 18 21 18 -1
-7 -20 -23 -21 -27 -7 -33 9 -3 22 -3 28 1 7 4 6 -1 -2 -10 -18 -23 2 -22 22
1 21 23 21 32 1 32 -8 0 -13 4 -10 9 3 5 -1 14 -9 21 -13 10 -19 10 -33 -4
-29 -25 -38 -19 -12 9 13 14 21 25 18 25 -2 0 -15 -11 -28 -25z"/>
<path d="M784 1959 c-3 -6 3 -21 15 -32 16 -16 23 -19 33 -9 9 9 7 16 -7 32
-20 23 -31 25 -41 9z m41 -37 c-6 -7 -35 18 -35 31 0 5 9 2 20 -8 11 -10 18
-20 15 -23z"/>
<path d="M755 1930 c-9 -15 4 -30 26 -30 11 0 18 4 14 10 -3 5 -13 6 -22 3
-12 -5 -15 -2 -10 10 7 19 2 23 -8 7z"/>
<path d="M979 1845 c-63 -34 -80 -156 -28 -211 46 -49 67 -54 232 -54 145 0
157 -1 201 -25 l46 -25 33 20 c27 17 50 20 156 20 94 0 122 3 118 13 -3 6 -17
40 -32 75 l-28 62 -76 0 c-72 0 -101 9 -101 32 0 4 28 8 61 8 53 0 60 2 49 15
-8 9 -36 15 -88 17 -49 2 -77 7 -80 16 -3 9 12 12 53 12 48 0 56 3 51 16 -3 9
-6 18 -6 20 0 2 -120 4 -267 4 -209 -1 -274 -4 -294 -15z"/>
<path d="M611 1654 c-12 -15 -21 -38 -21 -53 l1 -26 24 28 c14 15 25 39 25 53
0 30 -4 30 -29 -2z"/>
<path d="M2020 1658 c0 -15 11 -40 25 -55 l24 -28 1 27 c0 15 -11 40 -25 55
l-24 28 -1 -27z"/>
<path d="M536 1614 c-9 -25 -7 -92 3 -99 13 -7 31 27 31 59 0 30 -9 56 -20 56
-4 0 -11 -7 -14 -16z"/>
<path d="M2096 1614 c-15 -39 3 -112 25 -99 18 12 9 115 -11 115 -4 0 -11 -7
-14 -16z"/>
<path d="M603 1563 c-35 -37 -49 -73 -27 -73 19 0 18 -3 -11 -46 -26 -39 -33
-78 -13 -72 24 8 50 56 50 93 0 23 8 50 20 66 11 14 18 35 16 45 -4 17 -8 15
-35 -13z"/>
<path d="M2020 1571 c0 -25 52 -85 68 -80 16 5 -17 68 -46 87 -20 13 -22 13
-22 -7z"/>
<path d="M990 1551 c0 -5 5 -11 11 -13 6 -2 14 -59 19 -138 5 -74 12 -172 16
-217 l6 -83 -178 -3 -179 -2 176 -3 176 -2 7 -37 c3 -21 6 -59 6 -85 0 -47 1
-48 30 -48 l31 0 -1 306 c-1 168 1 308 4 312 16 16 0 22 -59 22 -36 0 -65 -4
-65 -9z m103 -123 c4 -62 7 -200 7 -306 0 -179 -1 -193 -17 -190 -13 2 -19 15
-21 43 -17 229 -37 557 -33 561 2 2 16 4 31 4 l27 0 6 -112z"/>
<path d="M490 1496 c0 -37 27 -99 40 -91 23 14 2 103 -27 113 -8 2 -13 -6 -13
-22z"/>
<path d="M2141 1507 c-17 -21 -24 -73 -13 -94 10 -16 12 -14 26 19 26 62 18
111 -13 75z"/>
<path d="M2058 1475 c-10 -10 10 -67 32 -89 23 -24 35 -16 26 18 -7 30 -48 80
-58 71z"/>
<path d="M477 1379 c-7 -25 13 -91 29 -96 22 -7 24 29 5 73 -22 50 -26 53 -34
23z"/>
<path d="M2156 1373 c-19 -38 -22 -97 -3 -91 18 7 38 74 28 100 -8 22 -9 22
-25 -9z"/>
<path d="M1448 1362 c-16 -10 -28 -21 -28 -25 0 -5 5 -5 12 -1 7 4 8 3 4 -5
-4 -6 -1 -27 6 -47 11 -31 11 -37 -4 -45 -26 -14 -32 -12 -38 12 -5 21 -6 21
-18 -5 -7 -15 -8 -24 -2 -21 5 3 10 -1 10 -9 0 -9 -8 -16 -18 -16 -25 0 -34
11 -21 26 7 9 7 19 -2 36 -7 13 -12 26 -11 31 5 16 -28 6 -55 -18 -19 -16 -23
-24 -13 -25 9 0 23 -8 31 -18 15 -17 14 -21 -1 -40 -14 -16 -20 -18 -30 -9
-10 9 -11 9 -6 0 5 -9 2 -11 -8 -7 -8 3 -16 15 -18 27 -2 16 -10 22 -28 22
-16 0 -24 -5 -24 -15 8 -80 27 -110 137 -218 l65 -64 101 130 c95 123 100 131
88 156 -11 23 -25 31 -49 27 -12 -2 -10 17 4 38 9 15 9 26 -1 47 -10 22 -10
29 1 35 9 6 7 9 -9 9 -12 0 -27 2 -35 4 -7 2 -25 -3 -40 -12z"/>
<path d="M561 1339 c-12 -19 -21 -47 -21 -64 l0 -29 20 20 c24 24 41 76 30 94
-6 10 -14 4 -29 -21z"/>
<path d="M2068 1358 c-8 -21 10 -73 32 -93 20 -18 20 -18 20 11 0 25 -32 94
-44 94 -2 0 -6 -6 -8 -12z"/>
<path d="M464 1254 c8 -34 36 -76 56 -82 17 -6 6 44 -19 77 -27 38 -45 40 -37
5z"/>
<path d="M2167 1262 c-20 -22 -42 -81 -33 -89 14 -15 66 61 66 97 0 16 -15 12
-33 -8z"/>
<path d="M566 1218 c-18 -42 -20 -66 -7 -87 7 -12 13 -7 27 22 14 28 15 43 7
69 l-10 33 -17 -37z"/>
<path d="M2065 1219 c-9 -47 21 -114 37 -85 12 21 3 75 -16 102 -13 18 -15 16
-21 -17z"/>
<path d="M470 1176 c0 -20 42 -85 64 -100 34 -22 35 -2 4 44 -22 32 -68 70
-68 56z"/>
<path d="M2156 1159 c-26 -20 -56 -68 -56 -89 0 -21 52 24 71 62 25 48 21 55
-15 27z"/>
<path d="M585 1090 c-8 -14 12 -85 29 -99 22 -19 30 21 12 62 -15 38 -31 53
-41 37z"/>
<path d="M1723 1093 c48 -2 126 -2 175 0 48 1 8 3 -88 3 -96 0 -136 -2 -87 -3z"/>
<path d="M2052 1088 c-33 -40 -38 -124 -6 -97 19 15 38 89 26 101 -5 5 -13 4
-20 -4z"/>
<path d="M510 1035 c0 -19 58 -85 76 -85 18 0 17 4 -1 40 -14 27 -51 60 -67
60 -5 0 -8 -7 -8 -15z"/>
<path d="M2112 1034 c-19 -13 -52 -63 -52 -79 0 -16 32 0 59 30 46 52 41 83
-7 49z"/>
<path d="M652 937 c6 -56 36 -98 51 -72 13 24 -1 70 -30 96 l-26 24 5 -48z"/>
<path d="M1982 958 c-26 -29 -37 -71 -24 -94 9 -16 12 -14 31 17 17 28 30 99
18 99 -2 0 -13 -10 -25 -22z"/>
<path d="M570 919 c0 -6 17 -29 39 -50 56 -56 80 -50 44 11 -22 38 -83 66 -83
39z"/>
<path d="M2024 896 c-33 -33 -45 -66 -23 -66 15 0 89 74 89 89 0 22 -33 10
-66 -23z"/>
<path d="M778 793 c7 -3 16 -2 19 1 4 3 -2 6 -13 5 -11 0 -14 -3 -6 -6z"/>
<path d="M854 786 c-3 -8 -4 -23 -1 -33 3 -12 5 -8 6 10 0 16 5 26 11 22 6 -3
10 -1 10 4 0 16 -20 13 -26 -3z"/>
<path d="M897 788 c3 -5 9 -22 13 -36 8 -25 8 -24 7 9 -1 20 -7 36 -14 36 -7
0 -10 -4 -6 -9z"/>
<path d="M937 793 c-10 -10 -8 -61 2 -68 5 -3 13 0 17 6 4 8 3 9 -4 5 -8 -5
-12 3 -12 23 0 16 6 32 13 34 6 3 7 6 1 6 -6 1 -14 -2 -17 -6z"/>
<path d="M998 765 c2 -19 5 -35 7 -35 2 0 5 16 7 35 2 21 0 35 -7 35 -7 0 -9
-14 -7 -35z"/>
<path d="M1030 763 l1 -38 15 28 c15 27 12 47 -7 47 -5 0 -9 -17 -9 -37z"/>
<path d="M1070 766 c0 -19 3 -37 8 -40 4 -2 6 13 4 35 -5 48 -12 51 -12 5z"/>
<path d="M1111 790 c0 -8 4 -22 9 -30 12 -18 12 -2 0 25 -6 13 -9 15 -9 5z"/>
<path d="M1230 785 c0 -8 -6 -15 -12 -15 -9 0 -10 -3 -2 -8 6 -4 14 -14 17
-22 3 -8 6 2 6 23 1 20 -1 37 -4 37 -3 0 -5 -7 -5 -15z"/>
<path d="M1382 765 c0 -22 2 -32 5 -22 2 9 9 17 14 17 5 0 9 5 9 11 0 5 -4 8
-9 4 -5 -3 -12 3 -14 12 -3 10 -5 0 -5 -22z"/>
<path d="M1424 786 c-3 -8 -4 -23 -1 -33 3 -12 5 -8 6 10 0 16 5 26 11 22 6
-3 10 -1 10 4 0 16 -20 13 -26 -3z"/>
<path d="M1488 765 c2 -19 5 -35 7 -35 2 0 5 16 7 35 2 21 0 35 -7 35 -7 0 -9
-14 -7 -35z"/>
<path d="M1522 765 c0 -30 1 -35 7 -20 l8 20 5 -20 c3 -11 6 -2 6 20 0 30 -1
35 -7 20 l-8 -20 -5 20 c-3 11 -6 2 -6 -20z"/>
<path d="M1567 794 c-4 -4 -7 -12 -7 -18 0 -6 5 -4 10 4 7 11 10 6 10 -20 0
-27 -3 -32 -11 -20 -7 10 -9 11 -7 2 6 -23 23 -14 26 14 4 27 -9 50 -21 38z"/>
<path d="M1600 799 c0 -4 7 -22 15 -40 8 -19 14 -27 14 -19 0 14 -28 72 -29
59z"/>
<path d="M1640 783 c0 -10 4 -14 8 -8 4 6 11 13 16 18 5 4 2 7 -7 7 -10 0 -17
-8 -17 -17z"/>
<path d="M1701 784 c0 -11 3 -14 6 -6 3 7 2 16 -1 19 -3 4 -6 -2 -5 -13z"/>
<path d="M1742 765 c0 -30 1 -35 7 -20 l8 20 5 -20 c3 -11 6 -2 6 20 0 30 -1
35 -7 20 l-8 -20 -5 20 c-3 11 -6 2 -6 -20z"/>
<path d="M1782 770 c0 -19 2 -27 5 -17 2 9 2 25 0 35 -3 9 -5 1 -5 -18z"/>
<path d="M1817 780 c10 -11 18 -20 19 -20 1 0 0 9 -3 20 -3 11 -12 20 -19 20
-11 0 -10 -5 3 -20z"/>
<path d="M1848 793 c6 -2 18 -2 25 0 6 3 1 5 -13 5 -14 0 -19 -2 -12 -5z"/>
<path d="M1901 790 c0 -8 4 -24 9 -35 5 -13 9 -14 9 -5 0 8 -4 24 -9 35 -5 13
-9 14 -9 5z"/>
<path d="M1271 764 c0 -11 3 -14 6 -6 3 7 2 16 -1 19 -3 4 -6 -2 -5 -13z"/>
<path d="M786 755 c4 -8 8 -15 10 -15 2 0 4 7 4 15 0 8 -4 15 -10 15 -5 0 -7
-7 -4 -15z"/>
<path d="M1350 759 c0 -5 5 -7 10 -4 6 3 10 8 10 11 0 2 -4 4 -10 4 -5 0 -10
-5 -10 -11z"/>
<path d="M1660 744 c0 -16 -2 -17 -10 -4 -6 9 -10 10 -10 3 0 -19 20 -26 26
-8 4 9 4 19 0 22 -3 4 -6 -2 -6 -13z"/>
<path d="M1701 743 c-1 -17 16 -25 25 -12 4 7 3 9 -4 5 -5 -3 -13 0 -15 6 -4
9 -6 10 -6 1z"/>
<path d="M891 590 c0 -32 3 -39 8 -25 8 19 8 19 19 0 11 -20 11 -20 11 0 1 11
-8 31 -19 45 l-20 25 1 -45z"/>
<path d="M962 618 c-27 -27 -3 -90 25 -67 16 14 17 29 2 29 -5 0 -7 -4 -4 -10
3 -5 1 -10 -5 -10 -14 0 -24 26 -16 46 5 14 9 14 24 3 15 -13 16 -12 3 4 -16
20 -14 20 -29 5z"/>
<path d="M1021 625 c-4 -14 0 -68 5 -77 6 -9 34 1 34 13 0 4 -6 6 -14 3 -11
-4 -16 4 -19 33 -2 21 -5 34 -6 28z"/>
<path d="M1084 610 c3 -14 6 -33 6 -42 0 -10 5 -18 10 -18 16 0 12 44 -6 66
-15 18 -15 18 -10 -6z"/>
<path d="M1195 611 c4 -14 16 -34 26 -45 19 -20 19 -19 18 25 -1 24 -3 36 -6
26 -5 -18 -5 -18 -25 0 -20 18 -21 18 -13 -6z"/>
<path d="M1300 623 c-12 -3 -15 -13 -12 -38 2 -19 8 -35 14 -35 5 0 6 9 3 20
-4 12 -1 28 6 36 14 17 10 22 -11 17z"/>
<path d="M1407 590 c6 -36 10 -46 17 -39 2 2 6 20 9 39 4 30 2 36 -13 36 -15
0 -17 -6 -13 -36z"/>
<path d="M1541 630 c-6 -15 -5 -80 2 -80 4 0 7 7 7 15 0 8 5 15 11 15 6 0 9
-7 5 -15 -3 -8 -1 -15 4 -15 6 0 10 18 10 41 0 23 -4 38 -10 34 -5 -3 -7 -12
-3 -20 3 -8 0 -15 -5 -15 -6 0 -13 10 -15 23 -2 12 -5 20 -6 17z"/>
<path d="M1666 611 c3 -14 15 -34 25 -45 19 -20 19 -19 18 25 -1 24 -4 34 -6
21 l-4 -22 -20 22 -20 23 7 -24z"/>
<path d="M1733 590 c-1 -25 1 -37 4 -27 2 9 8 17 13 17 5 0 10 -8 12 -17 3
-10 6 -1 9 20 3 21 1 40 -3 43 -4 3 -8 -4 -8 -15 0 -28 -18 -27 -23 2 -2 12
-4 2 -4 -23z"/>
<path d="M1140 585 c0 -19 4 -35 10 -35 5 0 7 7 4 15 -4 8 -1 15 5 15 6 0 11
5 11 11 0 5 -5 7 -12 3 -8 -5 -9 -2 -5 9 3 10 2 17 -3 17 -6 0 -10 -16 -10
-35z"/>
<path d="M1353 600 c3 -11 2 -20 -3 -20 -4 0 -11 -7 -14 -16 -5 -14 -4 -15 9
-4 12 10 16 9 21 -4 12 -31 22 -6 11 29 -11 36 -33 50 -24 15z"/>
<path d="M1474 608 c-4 -7 -3 -8 4 -4 8 5 12 -3 12 -23 0 -17 4 -31 9 -31 4 0
6 12 3 26 -3 16 1 30 9 35 11 7 9 9 -8 9 -12 0 -25 -5 -29 -12z"/>
<path d="M1613 600 c3 -11 1 -20 -4 -20 -5 0 -9 -8 -9 -17 0 -14 2 -15 9 -4 6
9 11 10 15 2 15 -24 24 -9 13 24 -11 36 -33 50 -24 15z"/>
<path d="M1320 450 c0 -5 5 -10 10 -10 6 0 10 5 10 10 0 6 -4 10 -10 10 -5 0
-10 -4 -10 -10z"/>
</g>
</svg>
